<svg xmlns:svg="http://www.w3.org/2000/svg" xmlns="http://www.w3.org/2000/svg" width="490" height="485" version="1.1" hola_ext_inject="disabled"><title>layered heart</title><defs xmlns="http://www.w3.org/2000/svg">
  <filter id="shadow" x="0" y="0" width="200%" height="200%">
      <feOffset result="offOut" in="SourceGraphic" dx="0" dy="5"/>
      <feColorMatrix result="matrixOut" in="offOut" type="matrix" values="0.2 0 0 0 0 0 0.2 0 0 0 0 0 0.2 0 0 0 0 0 1 0"/>
      <feGaussianBlur result="blurOut" in="matrixOut" stdDeviation="5"/>
      <feBlend in="SourceGraphic" in2="blurOut" mode="normal"/>
    </filter>
  <filter x="-0.8" width="2.7" y="-0.3" height="1.6" color-interpolation-filters="sRGB"><feGaussianBlur stdDeviation="34.5"/></filter></defs><g transform="translate(-156.43429,-301.78281)" filter="url(#shadow)"><g transform="translate(435.34019,-82.775385)"><path d="M-66.9 529.7C82.6 195.8 301.7 522.8 138.5 684 81.7 740.1-60.4 806.5-114.6 845.4-420.7 490.2-159.7 232-66.9 529.7z" fill="#e9afaf"/><path d="M-80.7 532.5C66.9 198.7 283.2 525.7 122.1 686.8c-56.1 56.1-196.4 122.5-250 161.4-302.2-355.1-44.5-613.4 47.1-315.7z" fill="#d35f5f"/><path d="M-88.6 540.9C59.1 207.1 275.4 534.1 114.3 695.2c-56.1 56.1-196.4 122.5-250 161.4-302.2-355.1-44.5-613.4 47.1-315.7z" fill="#c83737"/></g></g></svg>
